<?xml version="1.0" encoding="UTF-8"?>
<!--Generator: Apple Native CoreSVG 341-->
<!DOCTYPE svg
PUBLIC "-//W3C//DTD SVG 1.1//EN"
       "http://www.w3.org/Graphics/SVG/1.1/DTD/svg11.dtd">
<svg version="1.1" xmlns="http://www.w3.org/2000/svg" xmlns:xlink="http://www.w3.org/1999/xlink" viewBox="0 0 90.6006 47.4365">
 <g>
  <path d="M83.7158 43.4082L83.7158 4.00391C83.7158 1.26953 82.1045 0 80.249 0C79.4189 0 78.5889 0.244141 77.7588 0.708008L44.6777 20.1172C42.6025 21.3135 41.7725 22.2656 41.7725 23.7061C41.7725 25.1465 42.6025 26.0742 44.6777 27.2705L77.7588 46.6797C78.5889 47.1436 79.4189 47.3877 80.249 47.3877C82.1045 47.3877 83.7158 46.1426 83.7158 43.4082ZM41.9434 43.4082L41.9434 4.00391C41.9434 1.26953 40.332 0 38.4766 0C37.6465 0 36.8164 0.244141 35.9863 0.708008L2.92969 20.1172C0.854492 21.3135 0 22.2656 0 23.7061C0 25.1465 0.854492 26.0742 2.92969 27.2705L35.9863 46.6797C36.8164 47.1436 37.6465 47.3877 38.4766 47.3877C40.332 47.3877 41.9434 46.1426 41.9434 43.4082Z" fill="white" fill-opacity="0.85"/>
 </g>
</svg>
